<svg width="2960" height="1582" viewBox="0 0 2960 1582" fill="none" xmlns="http://www.w3.org/2000/svg">
<g filter="url(#filter0_d_124_118)">
<rect x="990" y="1392" width="778" height="918" rx="33" transform="rotate(-180 990 1392)" fill="#4A5465"/>
<rect x="989.5" y="1391.5" width="777" height="917" rx="32.5" transform="rotate(-180 989.5 1391.5)" stroke="black" stroke-opacity="0.15"/>
</g>
<rect x="290.5" y="700.5" width="620" height="317" rx="5.5" stroke="#57C6F4" stroke-width="9"/>
<rect x="255.5" y="1020.5" width="691" height="105" rx="10.5" fill="#3675D4" stroke="#3675D4" stroke-width="9"/>
<rect x="499" y="1016" width="152" height="36" fill="#98B5E8"/>
<rect x="485" y="732" width="232" height="45.229" fill="#ED2222"/>
<rect x="485" y="784.296" width="46.9524" height="200.704" fill="#18E820"/>
<line y1="-10" x2="143.647" y2="-10" transform="matrix(0.999806 -0.0196789 0.0187859 0.999824 547.833 815.391)" stroke="#EAC818" stroke-width="20"/>
<line y1="-10" x2="143.647" y2="-10" transform="matrix(0.999806 -0.0196789 0.0187859 0.999824 547.833 869.101)" stroke="#EAC818" stroke-width="20"/>
<line y1="-10" x2="143.647" y2="-10" transform="matrix(0.999806 -0.0196789 0.0187859 0.999824 547.833 922.81)" stroke="#EAC818" stroke-width="20"/>
<line y1="-10" x2="143.647" y2="-10" transform="matrix(0.999806 -0.0196789 0.0187859 0.999824 547.833 976.52)" stroke="#EAC818" stroke-width="20"/>
<g filter="url(#filter1_d_124_118)">
<rect x="1869" y="1081" width="778" height="918" rx="33" transform="rotate(-180 1869 1081)" fill="#4A5465"/>
<rect x="1868.5" y="1080.5" width="777" height="917" rx="32.5" transform="rotate(-180 1868.5 1080.5)" stroke="black" stroke-opacity="0.15"/>
</g>
<rect x="1159.5" y="443.5" width="641" height="357" stroke="#57C6F4" stroke-width="9"/>
<rect x="1159.5" y="443.5" width="641" height="60.9824" stroke="#57C6F4" stroke-width="9"/>
<rect x="1460.23" y="625.62" width="113.869" height="99.7451" fill="#3675D4"/>
<rect x="1419.9" y="587.009" width="113.869" height="99.7451" fill="#4F6D9A"/>
<rect x="1385.11" y="557.246" width="113.869" height="99.7451" fill="#3675D4"/>
<ellipse cx="1602.57" cy="474.394" rx="28.4672" ry="28.9582" fill="#F71010"/>
<ellipse cx="1675.32" cy="474.394" rx="28.4672" ry="28.9582" fill="#1FEC4C"/>
<ellipse cx="1748.07" cy="474.394" rx="28.4672" ry="28.9582" fill="#EAC818"/>
<rect x="1159.5" y="443.5" width="641" height="357" stroke="#57C6F4" stroke-width="9"/>
<rect x="1159.5" y="443.5" width="641" height="60.9824" stroke="#57C6F4" stroke-width="9"/>
<ellipse cx="1602.57" cy="474.394" rx="28.4672" ry="28.9582" fill="#F71010"/>
<ellipse cx="1675.32" cy="474.394" rx="28.4672" ry="28.9582" fill="#1FEC4C"/>
<ellipse cx="1748.07" cy="474.394" rx="28.4672" ry="28.9582" fill="#EAC818"/>
<g filter="url(#filter2_d_124_118)">
<rect x="2748" y="1326" width="778" height="918" rx="33" transform="rotate(-180 2748 1326)" fill="#4A5465"/>
<rect x="2747.5" y="1325.5" width="777" height="917" rx="32.5" transform="rotate(-180 2747.5 1325.5)" stroke="black" stroke-opacity="0.15"/>
</g>
<rect x="2038.5" y="688.5" width="641" height="357" stroke="#57C6F4" stroke-width="9"/>
<path d="M2522.5 874.5C2522.5 882.09 2518.05 889.394 2509.84 896.105C2501.62 902.814 2489.71 908.877 2474.95 913.979C2445.43 924.181 2404.61 930.5 2359.5 930.5C2314.39 930.5 2273.57 924.181 2244.05 913.979C2229.29 908.877 2217.38 902.814 2209.16 896.105C2200.95 889.394 2196.5 882.09 2196.5 874.5C2196.5 866.91 2200.95 859.606 2209.16 852.895C2217.38 846.186 2229.29 840.123 2244.05 835.021C2273.57 824.819 2314.39 818.5 2359.5 818.5C2404.61 818.5 2445.43 824.819 2474.95 835.021C2489.71 840.123 2501.62 846.186 2509.84 852.895C2518.05 859.606 2522.5 866.91 2522.5 874.5Z" fill="#2566C5" fill-opacity="0.74" stroke="#1762CE"/>
<ellipse cx="2359.5" cy="824.5" rx="163.5" ry="56.5" fill="#33507B" fill-opacity="0.74"/>
<ellipse cx="2359.5" cy="776.5" rx="163.5" ry="56.5" fill="#5082BD"/>
<line x1="2364.5" y1="930.942" x2="2365.5" y2="1007.94" stroke="#2C67BF" stroke-width="9"/>
<line x1="2196" y1="1003.5" x2="2556" y2="1003.54" stroke="#2C67BF" stroke-width="9"/>
<defs>
<filter id="filter0_d_124_118" x="122" y="474" width="958" height="1108" filterUnits="userSpaceOnUse" color-interpolation-filters="sRGB">
<feFlood flood-opacity="0" result="BackgroundImageFix"/>
<feColorMatrix in="SourceAlpha" type="matrix" values="0 0 0 0 0 0 0 0 0 0 0 0 0 0 0 0 0 0 127 0" result="hardAlpha"/>
<feOffset dy="100"/>
<feGaussianBlur stdDeviation="45"/>
<feComposite in2="hardAlpha" operator="out"/>
<feColorMatrix type="matrix" values="0 0 0 0 0.290278 0 0 0 0 0.328932 0 0 0 0 0.395833 0 0 0 0.65 0"/>
<feBlend mode="normal" in2="BackgroundImageFix" result="effect1_dropShadow_124_118"/>
<feBlend mode="normal" in="SourceGraphic" in2="effect1_dropShadow_124_118" result="shape"/>
</filter>
<filter id="filter1_d_124_118" x="1001" y="163" width="958" height="1108" filterUnits="userSpaceOnUse" color-interpolation-filters="sRGB">
<feFlood flood-opacity="0" result="BackgroundImageFix"/>
<feColorMatrix in="SourceAlpha" type="matrix" values="0 0 0 0 0 0 0 0 0 0 0 0 0 0 0 0 0 0 127 0" result="hardAlpha"/>
<feOffset dy="100"/>
<feGaussianBlur stdDeviation="45"/>
<feComposite in2="hardAlpha" operator="out"/>
<feColorMatrix type="matrix" values="0 0 0 0 0.290278 0 0 0 0 0.328932 0 0 0 0 0.395833 0 0 0 0.65 0"/>
<feBlend mode="normal" in2="BackgroundImageFix" result="effect1_dropShadow_124_118"/>
<feBlend mode="normal" in="SourceGraphic" in2="effect1_dropShadow_124_118" result="shape"/>
</filter>
<filter id="filter2_d_124_118" x="1880" y="408" width="958" height="1108" filterUnits="userSpaceOnUse" color-interpolation-filters="sRGB">
<feFlood flood-opacity="0" result="BackgroundImageFix"/>
<feColorMatrix in="SourceAlpha" type="matrix" values="0 0 0 0 0 0 0 0 0 0 0 0 0 0 0 0 0 0 127 0" result="hardAlpha"/>
<feOffset dy="100"/>
<feGaussianBlur stdDeviation="45"/>
<feComposite in2="hardAlpha" operator="out"/>
<feColorMatrix type="matrix" values="0 0 0 0 0.290278 0 0 0 0 0.328932 0 0 0 0 0.395833 0 0 0 0.65 0"/>
<feBlend mode="normal" in2="BackgroundImageFix" result="effect1_dropShadow_124_118"/>
<feBlend mode="normal" in="SourceGraphic" in2="effect1_dropShadow_124_118" result="shape"/>
</filter>
</defs>
</svg>
