<svg width="193" height="74" viewBox="0 0 193 74" fill="none" xmlns="http://www.w3.org/2000/svg">
<g filter="url(#filter0_d_2_2)">
<path d="M148 9.5C148 14.7467 126.734 19 100.5 19C74.2665 19 53 14.7467 53 9.5C53 4.25329 74.2665 0 100.5 0C126.734 0 148 4.25329 148 9.5Z" fill="#256AD0" fill-opacity="0.92" shape-rendering="crispEdges"/>
</g>
<path d="M118.517 47.4545C118.372 46.2311 117.785 45.2812 116.754 44.6051C115.724 43.929 114.46 43.5909 112.963 43.5909C111.868 43.5909 110.911 43.768 110.089 44.1222C109.277 44.4763 108.641 44.9633 108.182 45.5831C107.731 46.2029 107.506 46.9072 107.506 47.696C107.506 48.3561 107.663 48.9235 107.977 49.3984C108.299 49.8653 108.709 50.2557 109.208 50.5696C109.707 50.8755 110.23 51.129 110.778 51.3303C111.325 51.5234 111.828 51.6804 112.287 51.8011L114.798 52.4773C115.442 52.6463 116.159 52.8797 116.947 53.1776C117.744 53.4754 118.505 53.8819 119.229 54.397C119.962 54.9041 120.566 55.5561 121.04 56.353C121.515 57.1499 121.753 58.1278 121.753 59.2869C121.753 60.6231 121.403 61.8305 120.702 62.9091C120.01 63.9877 118.996 64.8449 117.66 65.4808C116.332 66.1167 114.718 66.4347 112.818 66.4347C111.047 66.4347 109.514 66.1489 108.218 65.5774C106.93 65.0059 105.916 64.209 105.175 63.1868C104.443 62.1645 104.028 60.9773 103.932 59.625H107.023C107.103 60.5587 107.417 61.3314 107.964 61.9432C108.52 62.5469 109.22 62.9976 110.065 63.2955C110.919 63.5852 111.836 63.7301 112.818 63.7301C113.961 63.7301 114.987 63.545 115.897 63.1747C116.807 62.7964 117.527 62.2732 118.058 61.6051C118.589 60.929 118.855 60.1402 118.855 59.2386C118.855 58.4176 118.626 57.7495 118.167 57.2344C117.708 56.7192 117.104 56.3007 116.356 55.9787C115.607 55.6567 114.798 55.375 113.929 55.1335L110.886 54.2642C108.955 53.7088 107.425 52.916 106.298 51.8857C105.171 50.8553 104.608 49.5071 104.608 47.8409C104.608 46.4564 104.982 45.2491 105.731 44.2188C106.487 43.1804 107.502 42.3755 108.773 41.804C110.053 41.2244 111.482 40.9347 113.06 40.9347C114.653 40.9347 116.07 41.2204 117.31 41.7919C118.549 42.3553 119.531 43.1281 120.256 44.1101C120.988 45.0921 121.375 46.2069 121.415 47.4545H118.517ZM134.355 47.4545V49.8693H124.744V47.4545H134.355ZM127.545 43.0114H130.395V60.6875C130.395 61.4924 130.511 62.0961 130.745 62.4986C130.986 62.893 131.292 63.1586 131.662 63.2955C132.041 63.4242 132.439 63.4886 132.858 63.4886C133.172 63.4886 133.429 63.4725 133.631 63.4403C133.832 63.4001 133.993 63.3679 134.113 63.3438L134.693 65.9034C134.5 65.9759 134.23 66.0483 133.884 66.1207C133.538 66.2012 133.099 66.2415 132.568 66.2415C131.763 66.2415 130.974 66.0684 130.202 65.7223C129.437 65.3762 128.801 64.849 128.294 64.1406C127.795 63.4323 127.545 62.5388 127.545 61.4602V43.0114ZM144.099 66.4347C142.923 66.4347 141.857 66.2133 140.899 65.7706C139.941 65.3198 139.18 64.6719 138.617 63.8267C138.054 62.9735 137.772 61.9432 137.772 60.7358C137.772 59.6733 137.981 58.812 138.4 58.152C138.818 57.4839 139.378 56.9607 140.078 56.5824C140.778 56.2041 141.551 55.9223 142.396 55.7372C143.249 55.544 144.107 55.3911 144.968 55.2784C146.095 55.1335 147.008 55.0249 147.709 54.9524C148.417 54.8719 148.932 54.7391 149.254 54.554C149.584 54.3688 149.749 54.0469 149.749 53.5881V53.4915C149.749 52.3002 149.423 51.3745 148.771 50.7145C148.127 50.0545 147.149 49.7244 145.837 49.7244C144.477 49.7244 143.41 50.0223 142.638 50.6179C141.865 51.2135 141.322 51.8494 141.008 52.5256L138.303 51.5597C138.786 50.4328 139.43 49.5554 140.235 48.9276C141.048 48.2917 141.933 47.849 142.891 47.5994C143.857 47.3419 144.807 47.2131 145.741 47.2131C146.336 47.2131 147.02 47.2855 147.793 47.4304C148.574 47.5672 149.327 47.853 150.051 48.2876C150.783 48.7223 151.391 49.3783 151.874 50.2557C152.357 51.133 152.599 52.3082 152.599 53.7812V66H149.749V63.4886H149.604C149.411 63.8911 149.089 64.3217 148.638 64.7805C148.188 65.2393 147.588 65.6297 146.839 65.9517C146.091 66.2737 145.177 66.4347 144.099 66.4347ZM144.533 63.875C145.66 63.875 146.61 63.6536 147.383 63.2109C148.163 62.7682 148.751 62.1967 149.145 61.4964C149.548 60.7962 149.749 60.0597 149.749 59.2869V56.679C149.628 56.8239 149.363 56.9567 148.952 57.0774C148.55 57.1901 148.083 57.2907 147.552 57.3793C147.028 57.4598 146.517 57.5322 146.018 57.5966C145.527 57.6529 145.129 57.7012 144.823 57.7415C144.082 57.8381 143.39 57.995 142.746 58.2124C142.11 58.4216 141.595 58.7396 141.201 59.1662C140.814 59.5848 140.621 60.1562 140.621 60.8807C140.621 61.8707 140.988 62.6193 141.72 63.1264C142.461 63.6255 143.398 63.875 144.533 63.875ZM165.333 66.3864C163.595 66.3864 162.098 65.9759 160.842 65.1548C159.586 64.3338 158.62 63.2029 157.944 61.7621C157.268 60.3213 156.93 58.6752 156.93 56.8239C156.93 54.9403 157.276 53.2782 157.968 51.8374C158.669 50.3885 159.643 49.2576 160.89 48.4446C162.146 47.6236 163.611 47.2131 165.285 47.2131C166.589 47.2131 167.764 47.4545 168.811 47.9375C169.857 48.4205 170.714 49.0966 171.382 49.9659C172.051 50.8352 172.465 51.8494 172.626 53.0085H169.777C169.559 52.1634 169.076 51.4148 168.328 50.7628C167.587 50.1027 166.589 49.7727 165.333 49.7727C164.223 49.7727 163.249 50.0625 162.412 50.642C161.583 51.2135 160.935 52.0225 160.468 53.0689C160.009 54.1072 159.779 55.3267 159.779 56.7273C159.779 58.16 160.005 59.4077 160.456 60.4702C160.914 61.5327 161.558 62.3577 162.387 62.9453C163.225 63.5329 164.207 63.8267 165.333 63.8267C166.074 63.8267 166.746 63.6979 167.35 63.4403C167.953 63.1828 168.465 62.8125 168.883 62.3295C169.302 61.8466 169.6 61.267 169.777 60.5909H172.626C172.465 61.6856 172.067 62.6716 171.431 63.549C170.803 64.4183 169.97 65.1106 168.931 65.6257C167.901 66.1328 166.702 66.3864 165.333 66.3864ZM179.448 59.2386L179.4 55.7131H179.979L188.093 47.4545H191.618L182.973 56.196H182.732L179.448 59.2386ZM176.792 66V41.2727H179.641V66H176.792ZM188.576 66L181.331 56.8239L183.36 54.8438L192.198 66H188.576Z" fill="#3675D4"/>
<path d="M2.99432 66V41.2727H5.84375V50.4006H6.08523C6.29451 50.0786 6.58428 49.6681 6.95455 49.169C7.33286 48.6619 7.87216 48.2112 8.57244 47.8168C9.28078 47.4143 10.2386 47.2131 11.446 47.2131C13.0076 47.2131 14.384 47.6035 15.5753 48.3842C16.7666 49.165 17.6963 50.2718 18.3643 51.7045C19.0324 53.1373 19.3665 54.8277 19.3665 56.7756C19.3665 58.7396 19.0324 60.442 18.3643 61.8828C17.6963 63.3156 16.7706 64.4264 15.5874 65.2152C14.4041 65.996 13.0398 66.3864 11.4943 66.3864C10.303 66.3864 9.3492 66.1892 8.63281 65.7947C7.91643 65.3923 7.36506 64.9375 6.97869 64.4304C6.59233 63.9152 6.29451 63.4886 6.08523 63.1506H5.74716V66H2.99432ZM5.79545 56.7273C5.79545 58.1278 6.00071 59.3634 6.41122 60.4339C6.82173 61.4964 7.4214 62.3295 8.21023 62.9332C8.99905 63.5289 9.96496 63.8267 11.108 63.8267C12.2992 63.8267 13.2933 63.5128 14.0902 62.8849C14.8951 62.2491 15.4988 61.3958 15.9013 60.3253C16.3118 59.2467 16.517 58.0473 16.517 56.7273C16.517 55.4233 16.3158 54.2481 15.9134 53.2017C15.5189 52.1473 14.9193 51.3142 14.1143 50.7024C13.3175 50.0826 12.3153 49.7727 11.108 49.7727C9.94886 49.7727 8.97491 50.0665 8.18608 50.6541C7.39725 51.2337 6.80161 52.0466 6.39915 53.093C5.99669 54.1314 5.79545 55.3428 5.79545 56.7273ZM23.7251 66V47.4545H26.5746V66H23.7251ZM25.174 44.3636C24.6186 44.3636 24.1397 44.1745 23.7372 43.7962C23.3428 43.4179 23.1456 42.9631 23.1456 42.4318C23.1456 41.9006 23.3428 41.4458 23.7372 41.0675C24.1397 40.6892 24.6186 40.5 25.174 40.5C25.7294 40.5 26.2043 40.6892 26.5987 41.0675C27.0012 41.4458 27.2024 41.9006 27.2024 42.4318C27.2024 42.9631 27.0012 43.4179 26.5987 43.7962C26.2043 44.1745 25.7294 44.3636 25.174 44.3636ZM34.6429 54.8438V66H31.7935V47.4545H34.5463V50.3523H34.7878C35.2225 49.4105 35.8825 48.6539 36.7679 48.0824C37.6534 47.5028 38.7963 47.2131 40.1969 47.2131C41.4526 47.2131 42.5513 47.4706 43.4931 47.9858C44.4348 48.4929 45.1673 49.2656 45.6905 50.304C46.2137 51.3343 46.4753 52.6383 46.4753 54.2159V66H43.6259V54.4091C43.6259 52.9522 43.2476 51.8172 42.4909 51.0043C41.7343 50.1832 40.696 49.7727 39.3759 49.7727C38.4663 49.7727 37.6533 49.9699 36.937 50.3643C36.2286 50.7588 35.6692 51.3343 35.2587 52.0909C34.8482 52.8475 34.6429 53.7652 34.6429 54.8438ZM57.1396 66.4347C55.9644 66.4347 54.8978 66.2133 53.94 65.7706C52.9821 65.3198 52.2215 64.6719 51.658 63.8267C51.0946 62.9735 50.8129 61.9432 50.8129 60.7358C50.8129 59.6733 51.0221 58.812 51.4407 58.152C51.8593 57.4839 52.4187 56.9607 53.119 56.5824C53.8192 56.2041 54.592 55.9223 55.4371 55.7372C56.2904 55.544 57.1476 55.3911 58.0089 55.2784C59.1358 55.1335 60.0494 55.0249 60.7496 54.9524C61.458 54.8719 61.9731 54.7391 62.2951 54.554C62.6251 54.3688 62.7901 54.0469 62.7901 53.5881V53.4915C62.7901 52.3002 62.4641 51.3745 61.8121 50.7145C61.1682 50.0545 60.1902 49.7244 58.8782 49.7244C57.5179 49.7244 56.4513 50.0223 55.6786 50.6179C54.9059 51.2135 54.3626 51.8494 54.0487 52.5256L51.3441 51.5597C51.8271 50.4328 52.471 49.5554 53.2759 48.9276C54.0889 48.2917 54.9743 47.849 55.9322 47.5994C56.8981 47.3419 57.8479 47.2131 58.7816 47.2131C59.3772 47.2131 60.0614 47.2855 60.8342 47.4304C61.6149 47.5672 62.3675 47.853 63.092 48.2876C63.8245 48.7223 64.4322 49.3783 64.9151 50.2557C65.3981 51.133 65.6396 52.3082 65.6396 53.7812V66H62.7901V63.4886H62.6452C62.4521 63.8911 62.1301 64.3217 61.6793 64.7805C61.2286 65.2393 60.6289 65.6297 59.8803 65.9517C59.1317 66.2737 58.2182 66.4347 57.1396 66.4347ZM57.5742 63.875C58.7011 63.875 59.6509 63.6536 60.4237 63.2109C61.2044 62.7682 61.792 62.1967 62.1864 61.4964C62.5889 60.7962 62.7901 60.0597 62.7901 59.2869V56.679C62.6694 56.8239 62.4038 56.9567 61.9933 57.0774C61.5908 57.1901 61.1239 57.2907 60.5927 57.3793C60.0695 57.4598 59.5584 57.5322 59.0593 57.5966C58.5683 57.6529 58.1699 57.7012 57.864 57.7415C57.1235 57.8381 56.4312 57.995 55.7873 58.2124C55.1514 58.4216 54.6362 58.7396 54.2418 59.1662C53.8555 59.5848 53.6623 60.1562 53.6623 60.8807C53.6623 61.8707 54.0285 62.6193 54.761 63.1264C55.5015 63.6255 56.4393 63.875 57.5742 63.875ZM70.8404 66V47.4545H73.5932V50.2557H73.7864C74.1245 49.3381 74.7362 48.5935 75.6216 48.022C76.507 47.4505 77.5051 47.1648 78.6159 47.1648C78.8252 47.1648 79.0868 47.1688 79.4007 47.1768C79.7147 47.1849 79.9521 47.197 80.1131 47.2131V50.1108C80.0165 50.0866 79.7952 50.0504 79.449 50.0021C79.111 49.9458 78.7528 49.9176 78.3745 49.9176C77.473 49.9176 76.668 50.1068 75.9597 50.4851C75.2594 50.8553 74.704 51.3705 74.2935 52.0305C73.891 52.6825 73.6898 53.4271 73.6898 54.2642V66H70.8404ZM85.8904 72.9545C85.4075 72.9545 84.9769 72.9143 84.5985 72.8338C84.2202 72.7614 83.9586 72.6889 83.8137 72.6165L84.5382 70.1051C85.2304 70.2822 85.8422 70.3466 86.3734 70.2983C86.9047 70.25 87.3755 70.0125 87.786 69.5859C88.2046 69.1674 88.5869 68.4872 88.9331 67.5455L89.4643 66.0966L82.6064 47.4545H85.6973L90.8166 62.233H91.0098L96.1291 47.4545H99.22L91.3478 68.7045C90.9937 69.6624 90.555 70.4553 90.0318 71.0831C89.5086 71.719 88.9009 72.1899 88.2086 72.4957C87.5244 72.8016 86.7517 72.9545 85.8904 72.9545Z" fill="#548AD9" fill-opacity="0.74"/>
<path d="M2.99432 66V41.2727H5.84375V50.4006H6.08523C6.29451 50.0786 6.58428 49.6681 6.95455 49.169C7.33286 48.6619 7.87216 48.2112 8.57244 47.8168C9.28078 47.4143 10.2386 47.2131 11.446 47.2131C13.0076 47.2131 14.384 47.6035 15.5753 48.3842C16.7666 49.165 17.6963 50.2718 18.3643 51.7045C19.0324 53.1373 19.3665 54.8277 19.3665 56.7756C19.3665 58.7396 19.0324 60.442 18.3643 61.8828C17.6963 63.3156 16.7706 64.4264 15.5874 65.2152C14.4041 65.996 13.0398 66.3864 11.4943 66.3864C10.303 66.3864 9.3492 66.1892 8.63281 65.7947C7.91643 65.3923 7.36506 64.9375 6.97869 64.4304C6.59233 63.9152 6.29451 63.4886 6.08523 63.1506H5.74716V66H2.99432ZM5.79545 56.7273C5.79545 58.1278 6.00071 59.3634 6.41122 60.4339C6.82173 61.4964 7.4214 62.3295 8.21023 62.9332C8.99905 63.5289 9.96496 63.8267 11.108 63.8267C12.2992 63.8267 13.2933 63.5128 14.0902 62.8849C14.8951 62.2491 15.4988 61.3958 15.9013 60.3253C16.3118 59.2467 16.517 58.0473 16.517 56.7273C16.517 55.4233 16.3158 54.2481 15.9134 53.2017C15.5189 52.1473 14.9193 51.3142 14.1143 50.7024C13.3175 50.0826 12.3153 49.7727 11.108 49.7727C9.94886 49.7727 8.97491 50.0665 8.18608 50.6541C7.39725 51.2337 6.80161 52.0466 6.39915 53.093C5.99669 54.1314 5.79545 55.3428 5.79545 56.7273ZM23.7251 66V47.4545H26.5746V66H23.7251ZM25.174 44.3636C24.6186 44.3636 24.1397 44.1745 23.7372 43.7962C23.3428 43.4179 23.1456 42.9631 23.1456 42.4318C23.1456 41.9006 23.3428 41.4458 23.7372 41.0675C24.1397 40.6892 24.6186 40.5 25.174 40.5C25.7294 40.5 26.2043 40.6892 26.5987 41.0675C27.0012 41.4458 27.2024 41.9006 27.2024 42.4318C27.2024 42.9631 27.0012 43.4179 26.5987 43.7962C26.2043 44.1745 25.7294 44.3636 25.174 44.3636ZM34.6429 54.8438V66H31.7935V47.4545H34.5463V50.3523H34.7878C35.2225 49.4105 35.8825 48.6539 36.7679 48.0824C37.6534 47.5028 38.7963 47.2131 40.1969 47.2131C41.4526 47.2131 42.5513 47.4706 43.4931 47.9858C44.4348 48.4929 45.1673 49.2656 45.6905 50.304C46.2137 51.3343 46.4753 52.6383 46.4753 54.2159V66H43.6259V54.4091C43.6259 52.9522 43.2476 51.8172 42.4909 51.0043C41.7343 50.1832 40.696 49.7727 39.3759 49.7727C38.4663 49.7727 37.6533 49.9699 36.937 50.3643C36.2286 50.7588 35.6692 51.3343 35.2587 52.0909C34.8482 52.8475 34.6429 53.7652 34.6429 54.8438ZM57.1396 66.4347C55.9644 66.4347 54.8978 66.2133 53.94 65.7706C52.9821 65.3198 52.2215 64.6719 51.658 63.8267C51.0946 62.9735 50.8129 61.9432 50.8129 60.7358C50.8129 59.6733 51.0221 58.812 51.4407 58.152C51.8593 57.4839 52.4187 56.9607 53.119 56.5824C53.8192 56.2041 54.592 55.9223 55.4371 55.7372C56.2904 55.544 57.1476 55.3911 58.0089 55.2784C59.1358 55.1335 60.0494 55.0249 60.7496 54.9524C61.458 54.8719 61.9731 54.7391 62.2951 54.554C62.6251 54.3688 62.7901 54.0469 62.7901 53.5881V53.4915C62.7901 52.3002 62.4641 51.3745 61.8121 50.7145C61.1682 50.0545 60.1902 49.7244 58.8782 49.7244C57.5179 49.7244 56.4513 50.0223 55.6786 50.6179C54.9059 51.2135 54.3626 51.8494 54.0487 52.5256L51.3441 51.5597C51.8271 50.4328 52.471 49.5554 53.2759 48.9276C54.0889 48.2917 54.9743 47.849 55.9322 47.5994C56.8981 47.3419 57.8479 47.2131 58.7816 47.2131C59.3772 47.2131 60.0614 47.2855 60.8342 47.4304C61.6149 47.5672 62.3675 47.853 63.092 48.2876C63.8245 48.7223 64.4322 49.3783 64.9151 50.2557C65.3981 51.133 65.6396 52.3082 65.6396 53.7812V66H62.7901V63.4886H62.6452C62.4521 63.8911 62.1301 64.3217 61.6793 64.7805C61.2286 65.2393 60.6289 65.6297 59.8803 65.9517C59.1317 66.2737 58.2182 66.4347 57.1396 66.4347ZM57.5742 63.875C58.7011 63.875 59.6509 63.6536 60.4237 63.2109C61.2044 62.7682 61.792 62.1967 62.1864 61.4964C62.5889 60.7962 62.7901 60.0597 62.7901 59.2869V56.679C62.6694 56.8239 62.4038 56.9567 61.9933 57.0774C61.5908 57.1901 61.1239 57.2907 60.5927 57.3793C60.0695 57.4598 59.5584 57.5322 59.0593 57.5966C58.5683 57.6529 58.1699 57.7012 57.864 57.7415C57.1235 57.8381 56.4312 57.995 55.7873 58.2124C55.1514 58.4216 54.6362 58.7396 54.2418 59.1662C53.8555 59.5848 53.6623 60.1562 53.6623 60.8807C53.6623 61.8707 54.0285 62.6193 54.761 63.1264C55.5015 63.6255 56.4393 63.875 57.5742 63.875ZM70.8404 66V47.4545H73.5932V50.2557H73.7864C74.1245 49.3381 74.7362 48.5935 75.6216 48.022C76.507 47.4505 77.5051 47.1648 78.6159 47.1648C78.8252 47.1648 79.0868 47.1688 79.4007 47.1768C79.7147 47.1849 79.9521 47.197 80.1131 47.2131V50.1108C80.0165 50.0866 79.7952 50.0504 79.449 50.0021C79.111 49.9458 78.7528 49.9176 78.3745 49.9176C77.473 49.9176 76.668 50.1068 75.9597 50.4851C75.2594 50.8553 74.704 51.3705 74.2935 52.0305C73.891 52.6825 73.6898 53.4271 73.6898 54.2642V66H70.8404ZM85.8904 72.9545C85.4075 72.9545 84.9769 72.9143 84.5985 72.8338C84.2202 72.7614 83.9586 72.6889 83.8137 72.6165L84.5382 70.1051C85.2304 70.2822 85.8422 70.3466 86.3734 70.2983C86.9047 70.25 87.3755 70.0125 87.786 69.5859C88.2046 69.1674 88.5869 68.4872 88.9331 67.5455L89.4643 66.0966L82.6064 47.4545H85.6973L90.8166 62.233H91.0098L96.1291 47.4545H99.22L91.3478 68.7045C90.9937 69.6624 90.555 70.4553 90.0318 71.0831C89.5086 71.719 88.9009 72.1899 88.2086 72.4957C87.5244 72.8016 86.7517 72.9545 85.8904 72.9545Z" fill="#548AD9" fill-opacity="0.74"/>
<g filter="url(#filter1_d_2_2)">
<path d="M147.5 26C147.5 26.2377 147.334 26.5793 146.743 27.005C146.167 27.4197 145.286 27.8404 144.103 28.2526C141.743 29.0747 138.301 29.8234 134.015 30.4551C125.45 31.7173 113.6 32.5 100.5 32.5C87.3998 32.5 75.5503 31.7173 66.9853 30.4551C62.699 29.8234 59.257 29.0747 56.8973 28.2526C55.7143 27.8404 54.8331 27.4197 54.2572 27.005C53.6661 26.5793 53.5 26.2377 53.5 26C53.5 25.7623 53.6661 25.4207 54.2572 24.995C54.8331 24.5803 55.7143 24.1596 56.8973 23.7474C59.257 22.9253 62.699 22.1766 66.9853 21.5449C75.5503 20.2827 87.3998 19.5 100.5 19.5C113.6 19.5 125.45 20.2827 134.015 21.5449C138.301 22.1766 141.743 22.9253 144.103 23.7474C145.286 24.1596 146.167 24.5803 146.743 24.995C147.334 25.4207 147.5 25.7623 147.5 26Z" stroke="#3675D4" shape-rendering="crispEdges"/>
</g>
<defs>
<filter id="filter0_d_2_2" x="49" y="0" width="103" height="32" filterUnits="userSpaceOnUse" color-interpolation-filters="sRGB">
<feFlood flood-opacity="0" result="BackgroundImageFix"/>
<feColorMatrix in="SourceAlpha" type="matrix" values="0 0 0 0 0 0 0 0 0 0 0 0 0 0 0 0 0 0 127 0" result="hardAlpha"/>
<feOffset dy="9"/>
<feGaussianBlur stdDeviation="2"/>
<feComposite in2="hardAlpha" operator="out"/>
<feColorMatrix type="matrix" values="0 0 0 0 0.211765 0 0 0 0 0.458823 0 0 0 0 0.831373 0 0 0 0.87 0"/>
<feBlend mode="normal" in2="BackgroundImageFix" result="effect1_dropShadow_2_2"/>
<feBlend mode="normal" in="SourceGraphic" in2="effect1_dropShadow_2_2" result="shape"/>
</filter>
<filter id="filter1_d_2_2" x="49" y="19" width="103" height="27" filterUnits="userSpaceOnUse" color-interpolation-filters="sRGB">
<feFlood flood-opacity="0" result="BackgroundImageFix"/>
<feColorMatrix in="SourceAlpha" type="matrix" values="0 0 0 0 0 0 0 0 0 0 0 0 0 0 0 0 0 0 127 0" result="hardAlpha"/>
<feOffset dy="9"/>
<feGaussianBlur stdDeviation="2"/>
<feComposite in2="hardAlpha" operator="out"/>
<feColorMatrix type="matrix" values="0 0 0 0 0.211765 0 0 0 0 0.458824 0 0 0 0 0.831373 0 0 0 1 0"/>
<feBlend mode="normal" in2="BackgroundImageFix" result="effect1_dropShadow_2_2"/>
<feBlend mode="normal" in="SourceGraphic" in2="effect1_dropShadow_2_2" result="shape"/>
</filter>
</defs>
</svg>
